<svg width="600" height="363" viewBox="0 0 600 363" fill="none" xmlns="http://www.w3.org/2000/svg">
<g clip-path="url(#clip0_6_123)">
<path d="M555.14 414.388C535.481 429.359 511.531 444.524 487.984 451.675C481.196 453.797 474.191 455.152 467.101 455.714C460.473 456.247 453.801 455.73 447.334 454.181C430.34 449.954 414.577 442.551 399.326 433.903C394.343 431.073 389.417 428.113 384.52 425.089C376.527 420.149 368.613 415.036 360.678 410.046C359.49 409.29 358.309 408.548 357.121 407.814H357.114C355.198 406.611 353.278 405.425 351.353 404.256C351.014 404.048 350.676 403.846 350.33 403.637C346.694 401.434 342.995 399.281 339.234 397.178C338.773 396.926 338.312 396.667 337.851 396.415C330.574 392.378 323.094 388.717 315.442 385.448C310.415 383.33 305.324 381.422 300.183 379.795H300.176C298.21 379.175 296.237 378.592 294.256 378.059C288.318 376.43 282.267 375.246 276.153 374.516C267.728 373.496 259.207 373.564 250.799 374.718C250.23 374.797 249.668 374.877 249.099 374.97C226.344 378.614 205.577 390.899 182.721 393.793C181.979 393.887 181.244 393.973 180.503 394.038C180.186 394.067 179.869 394.103 179.552 394.125C172.91 394.693 166.226 394.529 159.62 393.635C141.164 391.201 123.19 383.647 107.01 374.128C69.1831 351.869 38.5071 317.658 19.8566 278.038C16.6539 271.248 13.8104 264.294 11.3379 257.206C4.42488 237.549 0.617877 216.935 0.0539227 196.105C-1.69591 123.837 39.3712 51.3301 103.849 18.6449C168.333 -14.0402 253.161 -3.23157 305.166 46.9807C336.713 77.4408 354.968 118.717 378.709 155.593C402.451 192.462 436.195 227.682 479.717 233.054C501.889 235.79 525.09 230.497 546.34 237.381C558.107 241.198 568.145 248.5 576.232 257.803C581.668 264.117 586.218 271.142 589.755 278.686C592.347 284.14 594.451 289.812 596.042 295.637C596.337 296.71 596.61 297.783 596.877 298.856C607.462 342.09 590.547 387.413 555.14 414.388Z" fill="#F2F2F2"/>
<path d="M201.025 336.121H133.336C123.195 336.121 114.974 344.342 114.974 354.483V354.483C114.974 364.625 123.195 372.846 133.336 372.846H201.025C211.167 372.846 219.388 364.625 219.388 354.483C219.388 344.342 211.167 336.121 201.025 336.121Z" fill="#3F3D56"/>
<path d="M250.798 374.718C250.23 374.797 249.668 374.876 249.099 374.97C226.344 378.614 205.576 390.899 182.721 393.793C181.979 393.887 181.244 393.973 180.503 394.038C180.186 394.067 179.869 394.103 179.552 394.125C173.971 388.659 168.391 382.841 163.148 376.813C160.304 373.551 157.553 370.225 154.968 366.855C148.257 358.156 142.568 349.212 138.809 340.427C139.191 336.214 136.57 326.472 135.317 319.011L135.309 319.004C134.777 315.872 134.488 313.15 134.755 311.4C136.282 301.304 144.527 302.464 147.061 292.569C149.348 290.672 151.782 288.96 154.342 287.45C154.766 287.198 155.198 286.945 155.645 286.693L183.153 267.683L193.666 277.995L209.667 293.693L227.006 310.694L212.288 325.564C212.288 325.564 224.587 339.743 238.967 358.645C242.827 363.722 246.838 369.144 250.798 374.718Z" fill="#2F2E41"/>
<path d="M514.987 356.284H447.298C437.157 356.284 428.936 364.505 428.936 374.646V374.646C428.936 384.787 437.157 393.008 447.298 393.008H514.987C525.129 393.008 533.35 384.787 533.35 374.646C533.35 364.505 525.129 356.284 514.987 356.284Z" fill="#3F3D56"/>
<path d="M360.678 410.046C359.49 409.29 358.309 408.548 357.121 407.814H357.114C355.198 406.611 353.278 405.425 351.353 404.256C351.014 404.048 350.676 403.846 350.33 403.637C346.694 401.434 342.995 399.28 339.234 397.178C338.773 396.926 338.312 396.667 337.851 396.414C330.574 392.378 323.094 388.717 315.442 385.447C310.415 383.33 305.324 381.422 300.183 379.795H300.175L296.136 373.033L277.953 342.58L273.957 335.89C273.957 335.89 260.325 339.923 241.034 343.79C234.013 345.201 226.25 346.584 218.106 347.75C209.4 348.989 200.269 349.975 191.196 350.451C186.868 350.681 182.555 350.796 178.306 350.76C167.325 350.688 156.776 349.659 147.537 347.21C144.455 344.316 135.165 340.377 128.512 336.769H128.505C125.711 335.257 123.392 333.809 122.175 332.52C115.161 325.103 121.152 319.321 114.916 311.227C114.832 308.258 114.984 305.286 115.37 302.341C115.435 301.851 115.5 301.355 115.579 300.851L117.545 267.467L132.148 265.537L154.37 262.599L178.443 259.416L181.093 280.169C181.093 280.169 199.837 279.219 223.586 279.536C261.73 280.054 312.77 283.856 319.683 300.174C320.331 301.707 320.979 303.256 321.627 304.804C323.168 308.505 324.695 312.226 326.207 315.965C331.687 329.503 336.915 343.171 341.689 356.089C344.656 364.125 347.45 371.874 350.021 379.125C352.087 384.958 354.003 390.474 355.753 395.55C357.351 400.188 358.798 404.458 360.087 408.289C360.289 408.887 360.484 409.477 360.678 410.046Z" fill="#2F2E41"/>
<path d="M226.34 207.78L180.214 168.606L210.224 138.234L231.161 172.528L308.768 187.914C311.102 186.158 313.896 185.118 316.81 184.923C319.724 184.727 322.632 185.383 325.18 186.812C327.727 188.24 329.804 190.379 331.157 192.968C332.509 195.556 333.08 198.482 332.799 201.389C332.517 204.296 331.396 207.058 329.572 209.339C327.748 211.62 325.299 213.321 322.525 214.234C319.751 215.147 316.771 215.234 313.949 214.483C311.126 213.732 308.583 212.176 306.63 210.005L226.34 207.78Z" fill="#A0616A"/>
<path d="M139.449 117.121C134.118 134.463 184.887 175.824 184.887 175.824C185.451 171.66 214.235 207.561 216.193 204.309C221.759 195.069 227.883 172.228 234.309 169.308C237.983 167.639 216.903 144.434 216.903 144.434C216.903 144.434 206.15 130.208 191.953 112.178C188.034 107.006 182.87 102.91 176.941 100.271C171.013 97.6315 164.514 96.5351 158.048 97.0836C158.048 97.0836 144.78 99.7796 139.449 117.121Z" fill="#3F3D56"/>
<path d="M161.896 78.7304C179.126 78.7304 193.093 64.7628 193.093 47.5329C193.093 30.303 179.126 16.3354 161.896 16.3354C144.666 16.3354 130.698 30.303 130.698 47.5329C130.698 64.7628 144.666 78.7304 161.896 78.7304Z" fill="#A0616A"/>
<path d="M177.495 99.3497C184.216 103.345 188.236 110.687 190.544 118.158C194.817 131.989 197.389 146.289 198.203 160.742L200.641 204.012L230.832 296.146C204.666 318.287 106.314 301.178 106.314 301.178C106.314 301.178 103.295 300.172 106.314 297.153C109.333 294.134 112.272 296.808 109.253 293.789C106.234 290.77 108.315 294.134 109.322 291.115C110.328 288.095 109.322 290.108 108.315 289.102C107.309 288.095 116.106 279.038 116.106 279.038L108.055 226.152L97.9913 119.477C110.068 104.381 134.355 95.4828 134.355 95.4828L140.631 84.1868L172.008 86.697L177.495 99.3497Z" fill="#3F3D56"/>
<path d="M187.613 30.9582C190.038 32.7667 191.834 35.2901 192.749 38.1732C193.101 33.4616 193.123 28.7312 192.816 24.0165C192.449 20.7035 190.116 19.9583 187.415 19.0948C184.976 18.3146 182.218 17.4333 181.476 14.2171C171.669 4.67699 154.597 5.15806 142.914 8.48581C136.485 10.317 132.786 12.6697 132.455 14.048L132.387 14.3317L132.126 14.4622C127.17 16.94 126.206 24.7642 126.269 30.8914C126.39 42.4355 130.376 55.5467 132.621 56.6118C132.74 56.6682 132.77 56.6461 132.822 56.6033C136.203 53.9012 140.328 56.8086 142.141 58.3891C143.21 51.2142 146.653 44.6046 151.919 39.6158C157.185 34.6271 163.972 31.547 171.194 30.8675C173.552 30.6396 175.892 30.2472 178.196 29.6934C179.365 29.391 180.566 29.2334 181.773 29.2239C183.851 29.1924 185.889 29.7976 187.613 30.9582Z" fill="#2F2E41"/>
<path d="M148.303 254.783L138.76 249.895C138.248 249.531 137.885 248.994 137.736 248.385C137.588 247.775 137.663 247.131 137.95 246.573C138.236 246.014 138.713 245.577 139.295 245.341C139.877 245.105 140.524 245.086 141.119 245.288L150.662 250.176C151.174 250.54 151.537 251.076 151.685 251.686C151.834 252.296 151.759 252.939 151.472 253.498C151.186 254.057 150.709 254.494 150.127 254.73C149.545 254.966 148.897 254.984 148.303 254.783Z" fill="#810A67"/>
<path d="M116.185 241.688L100.486 183.244L142.438 175.302L140.182 215.418L195.303 272.175C198.221 272.055 201.111 272.788 203.62 274.282C206.129 275.777 208.149 277.97 209.434 280.592C210.718 283.215 211.212 286.155 210.854 289.054C210.497 291.953 209.304 294.685 207.421 296.917C205.537 299.149 203.045 300.785 200.248 301.626C197.451 302.466 194.47 302.475 191.668 301.65C188.867 300.826 186.365 299.204 184.469 296.982C182.573 294.76 181.365 292.035 180.991 289.139L116.185 241.688Z" fill="#A0616A"/>
<path d="M96.1928 117.715C81.9528 128.957 100.23 191.838 100.23 191.838C103.06 188.733 106.348 234.63 109.807 233.067C119.637 228.625 137.655 213.309 144.601 214.557C148.573 215.271 144.411 184.199 144.411 184.199C144.411 184.199 143.646 166.382 142.207 143.479C141.921 136.996 139.998 130.691 136.62 125.151C133.241 119.611 128.515 115.016 122.883 111.793C122.883 111.793 110.433 106.473 96.1928 117.715Z" fill="#3F3D56"/>
<path d="M589.755 278.686L19.8565 278.038C16.6538 271.248 13.8103 264.294 11.3378 257.206L576.232 257.803C581.668 264.117 586.218 271.142 589.755 278.686Z" fill="#3F3D56"/>
<path d="M540.652 330.547C537.699 334.508 534.653 338.389 531.514 342.191C528.619 345.698 525.647 349.138 522.599 352.51C521.339 353.907 520.064 355.297 518.761 356.672C516.363 359.243 513.912 361.771 511.408 364.255C506.901 365.674 497.77 368.172 487.984 370.505C480.862 372.198 473.395 373.803 467.101 374.826C463.578 375.458 460.014 375.839 456.436 375.964C452.188 376 447.874 375.885 443.547 375.654C438.664 375.395 433.775 374.992 428.943 374.473C416.377 373.155 404.208 371.103 393.709 368.993C389.863 368.23 386.249 367.452 382.922 366.696C376.621 365.278 371.35 363.953 367.533 362.944C363.234 361.821 360.786 361.094 360.786 361.094L350.021 379.125L344.433 388.479L340.328 395.356L339.234 397.178C338.773 396.926 338.312 396.667 337.851 396.415C330.574 392.378 323.094 388.717 315.442 385.447C310.415 383.33 305.324 381.422 300.183 379.795H300.176C298.21 379.175 296.237 378.592 294.256 378.059C294.876 376.396 295.502 374.72 296.136 373.033C297.317 369.886 298.522 366.711 299.751 363.506C302.408 356.564 305.159 349.522 307.989 342.515C310.307 336.762 312.669 331.03 315.06 325.377C316.162 322.77 318.401 320.48 321.534 318.471C323.031 317.527 324.592 316.69 326.207 315.965C335.172 311.882 348.379 309.225 362.932 307.519C364.135 307.382 365.344 307.245 366.561 307.115C378.608 305.848 391.39 305.193 403.344 304.89C409.328 304.739 415.103 304.681 420.475 304.674C422.21 304.674 423.898 304.679 425.537 304.689H425.544C429.973 304.71 434.049 304.775 437.635 304.847C438.333 304.861 439.01 304.883 439.673 304.897H439.68C440.126 304.905 440.566 304.919 440.998 304.926C448.839 305.128 453.65 305.373 453.65 305.373L455.515 290.74L455.896 287.788L456.256 284.98V284.972L456.3 284.62L456.595 284.612L461.78 284.512L505.36 283.662L529.166 283.194L525.393 299.367L519.164 326.054C519.798 330.274 540.868 326.968 540.652 330.547Z" fill="#2F2E41"/>
<path d="M413.612 427.112C411.834 428.019 410.041 428.912 408.24 429.777C405.295 431.202 402.323 432.578 399.325 433.903C394.342 431.073 389.417 428.113 384.52 425.089C376.527 420.149 368.613 415.036 360.678 410.046C359.49 409.29 358.309 408.548 357.121 407.814H357.113C353.844 402.96 350.51 397.905 347.147 392.699C347.097 392.627 347.054 392.555 347.01 392.483C346.146 391.158 345.287 389.823 344.433 388.479C339.053 380.054 333.645 371.269 328.396 362.296L341.689 356.089L366.403 344.553L370.666 342.566L382.922 366.696L393.853 388.22L396.287 393.008L413.612 427.112Z" fill="#2F2E41"/>
<path d="M417.337 311.261L480.346 250.497L497.81 201.048L472.05 189.847C458.818 202.522 444.516 241.999 444.516 241.999L401.157 297.162C400.819 297.278 400.482 297.4 400.149 297.547C398.196 298.409 396.498 299.759 395.22 301.468C393.941 303.177 393.125 305.187 392.851 307.304C392.576 309.42 392.852 311.572 393.652 313.551C394.452 315.53 395.748 317.269 397.417 318.6C399.085 319.931 401.069 320.809 403.176 321.15C405.283 321.49 407.442 321.282 409.445 320.544C411.447 319.806 413.226 318.564 414.609 316.938C415.991 315.312 416.931 313.357 417.337 311.261Z" fill="#FFB8B8"/>
<path d="M464.801 195.368L497.476 205.741L497.599 205.721C509.761 203.683 519.852 183.821 526.176 167.517C528.256 162.139 528.218 156.172 526.067 150.821C523.917 145.471 519.815 141.137 514.591 138.695C510.726 136.92 506.441 136.261 502.22 136.794C498 137.326 494.013 139.029 490.709 141.708L473.931 155.418L464.801 195.368Z" fill="#810A67"/>
<path d="M540.52 331.277L540.711 331.023C550.906 317.502 536.963 284.02 534.855 279.164L544.334 276.356L542.682 258.308L541.886 250.26L549.256 243.261L549.281 243.082L554.349 207.011L560.981 183.137C563.481 174.111 563.534 164.583 561.134 155.531C558.735 146.478 553.97 138.227 547.328 131.625L533.77 118.164L517.528 92.7402L490.294 92.0371L480.501 109.434C471.394 111.293 463.227 116.287 457.424 123.548C451.621 130.808 448.548 139.875 448.742 149.168L449.664 195.481L439.893 252.864L439.618 263.287L430.027 273.408L431.801 283.64L424.626 286.498L421.115 301.038C419.775 302.715 410.922 313.906 410.841 317.026C410.829 317.494 411.163 317.956 411.892 318.477C417.622 322.577 449.652 331.461 464.067 326.12C479.422 320.436 539.601 331.112 540.208 331.22L540.52 331.277Z" fill="#810A67"/>
<path d="M501.532 84.2433C521.458 84.2433 537.612 68.09 537.612 48.1639C537.612 28.2378 521.458 12.0845 501.532 12.0845C481.606 12.0845 465.453 28.2378 465.453 48.1639C465.453 68.09 481.606 84.2433 501.532 84.2433Z" fill="#FFB8B8"/>
<path d="M497.131 84.7261C502.718 84.8132 508.302 84.423 513.823 83.5595C519.295 82.4467 531.537 73.4759 534.95 68.0776C537.485 64.0667 539.106 57.8035 540.02 53.2559C541.251 47.2379 541.204 41.0286 539.882 35.0299C538.561 29.0312 535.994 23.377 532.349 18.4334C530.947 16.3656 529.013 14.7149 526.751 13.656C526.551 13.5776 526.344 13.5081 526.136 13.4487C522.839 12.5814 519.877 10.7486 517.63 8.18561C517.194 7.66722 516.722 7.18088 516.216 6.73039C513.676 4.58695 510.665 3.07501 507.429 2.31816C502.206 0.920162 494.646 2.30786 484.961 6.44672C480.095 8.52616 474.773 7.7736 470.68 6.88558C470.45 6.84123 470.213 6.85778 469.991 6.93358C469.77 7.00938 469.573 7.14179 469.418 7.31764C467.677 8.95277 465.381 9.86805 462.992 9.8795C461.529 9.94376 459.993 11.9698 458.138 14.6118C457.717 15.2115 457.225 15.9115 456.871 16.3372L456.823 15.5193L455.996 16.4317C454.695 17.8658 453.778 19.6058 453.33 21.4897C452.883 23.3735 452.919 25.34 453.436 27.206C453.953 29.072 454.934 30.7768 456.288 32.1616C457.641 33.5465 459.323 34.5663 461.176 35.1262C462.648 35.5178 464.156 35.7581 465.677 35.8434C466.598 35.9263 467.551 36.012 468.464 36.1704C471.395 36.7705 474.119 38.1203 476.373 40.0879C478.626 42.0555 480.33 44.5738 481.32 47.3968C481.554 48.0494 481.934 48.6394 482.433 49.1214C482.931 49.6034 483.533 49.9645 484.193 50.1768C484.853 50.3891 485.553 50.4468 486.239 50.3457C486.924 50.2445 487.578 49.9871 488.148 49.5933C489.1 48.8527 490.216 48.3531 491.402 48.1371C492.588 47.9211 493.808 47.9952 494.96 48.353C495.955 48.9062 496.729 49.7846 497.153 50.841C497.668 52.0178 498.523 53.0145 499.607 53.7038C503.315 55.6157 503.571 64.0855 502.239 71.1461C500.955 77.9519 498.417 82.8753 496.068 83.1187C494.259 83.3058 494.052 83.4343 493.921 83.7542L493.804 84.0406L494.007 84.3085C495.006 84.6707 496.072 84.8131 497.131 84.7261Z" fill="#2F2E41"/>
<path d="M473.761 184.46L459.85 156.725C439.657 158.104 399.581 181.451 399.581 181.451L323.756 197.528C321.51 196.664 319.076 196.408 316.699 196.784C314.322 197.16 312.086 198.156 310.217 199.671C308.347 201.186 306.909 203.167 306.049 205.414C305.188 207.662 304.934 210.096 305.313 212.473C305.692 214.849 306.691 217.084 308.208 218.951C309.726 220.819 311.708 222.255 313.956 223.113C316.205 223.971 318.639 224.221 321.015 223.839C323.391 223.457 325.625 222.456 327.491 220.937L423.945 214.023L473.761 184.46Z" fill="#FFB8B8"/>
<path d="M468.15 189.014L504.482 162.014L510.881 138.952C512.121 134.419 512.069 129.631 510.73 125.127C509.391 120.623 506.819 116.583 503.305 113.464C498.513 109.268 492.306 107.049 485.94 107.254C479.574 107.46 473.523 110.075 469.011 114.571C455.339 128.218 439.745 147.256 443.095 160.458L443.129 160.592L468.15 189.014Z" fill="#810A67"/>
<path d="M423.175 261.231H325.962V274.193H423.175V261.231Z" fill="white"/>
<path d="M174.742 261.231H77.529V274.193H174.742V261.231Z" fill="white"/>
<path d="M186.094 198.898V260.613C186.094 261.4 186.407 262.154 186.963 262.71C187.519 263.266 188.273 263.579 189.06 263.579H280.515C281.302 263.579 282.056 263.266 282.612 262.71C283.168 262.154 283.481 261.4 283.481 260.613V198.898C283.479 198.112 283.166 197.359 282.61 196.804C282.054 196.249 281.301 195.936 280.515 195.935H189.06C188.274 195.936 187.52 196.249 186.965 196.804C186.409 197.359 186.095 198.112 186.094 198.898Z" fill="#3F3D56"/>
<path d="M188.239 199.666V259.852C188.24 260.272 188.407 260.675 188.704 260.972C189.001 261.269 189.404 261.436 189.824 261.437H279.754C280.174 261.436 280.577 261.269 280.874 260.972C281.171 260.675 281.338 260.272 281.339 259.852V199.666C281.339 199.245 281.172 198.842 280.875 198.544C280.578 198.246 280.174 198.078 279.754 198.077H189.824C189.404 198.078 189 198.246 188.703 198.544C188.406 198.842 188.239 199.245 188.239 199.666Z" fill="#810A67"/>
<path d="M184.181 272.649C184.348 272.859 184.561 273.029 184.804 273.145C185.046 273.261 185.312 273.32 185.58 273.319H283.508C283.775 273.318 284.04 273.258 284.281 273.143C284.523 273.028 284.736 272.86 284.905 272.652C285.074 272.444 285.194 272.201 285.257 271.941C285.32 271.68 285.324 271.409 285.269 271.147L283.749 263.927C283.686 263.632 283.55 263.358 283.354 263.13C283.158 262.901 282.908 262.725 282.627 262.618C282.423 262.538 282.206 262.497 281.987 262.497H187.094C186.876 262.497 186.659 262.538 186.455 262.618C186.174 262.725 185.924 262.901 185.728 263.13C185.532 263.358 185.396 263.632 185.333 263.927L183.813 271.147C183.759 271.409 183.764 271.68 183.827 271.94C183.891 272.2 184.012 272.442 184.181 272.649Z" fill="#2F2E41"/>
<path d="M278.627 265.607H280.94C281.135 265.607 281.292 265.45 281.292 265.256V264.149C281.292 263.955 281.135 263.797 280.94 263.797H278.627C278.433 263.797 278.276 263.955 278.276 264.149V265.256C278.276 265.45 278.433 265.607 278.627 265.607Z" fill="#3F3D56"/>
<path d="M272.595 265.607H274.908C275.102 265.607 275.26 265.45 275.26 265.256V264.149C275.26 263.955 275.102 263.797 274.908 263.797H272.595C272.401 263.797 272.244 263.955 272.244 264.149V265.256C272.244 265.45 272.401 265.607 272.595 265.607Z" fill="#3F3D56"/>
<path d="M266.563 265.607H268.876C269.07 265.607 269.227 265.45 269.227 265.256V264.149C269.227 263.955 269.07 263.797 268.876 263.797H266.563C266.369 263.797 266.211 263.955 266.211 264.149V265.256C266.211 265.45 266.369 265.607 266.563 265.607Z" fill="#3F3D56"/>
<path d="M260.531 265.607H262.844C263.038 265.607 263.195 265.45 263.195 265.256V264.149C263.195 263.955 263.038 263.797 262.844 263.797H260.531C260.336 263.797 260.179 263.955 260.179 264.149V265.256C260.179 265.45 260.336 265.607 260.531 265.607Z" fill="#3F3D56"/>
<path d="M254.498 265.607H256.811C257.006 265.607 257.163 265.45 257.163 265.256V264.149C257.163 263.955 257.006 263.797 256.811 263.797H254.498C254.304 263.797 254.147 263.955 254.147 264.149V265.256C254.147 265.45 254.304 265.607 254.498 265.607Z" fill="#3F3D56"/>
<path d="M248.466 265.607H250.779C250.973 265.607 251.131 265.45 251.131 265.256V264.149C251.131 263.955 250.973 263.797 250.779 263.797H248.466C248.272 263.797 248.115 263.955 248.115 264.149V265.256C248.115 265.45 248.272 265.607 248.466 265.607Z" fill="#3F3D56"/>
<path d="M242.434 265.607H244.747C244.941 265.607 245.099 265.45 245.099 265.256V264.149C245.099 263.955 244.941 263.797 244.747 263.797H242.434C242.24 263.797 242.082 263.955 242.082 264.149V265.256C242.082 265.45 242.24 265.607 242.434 265.607Z" fill="#3F3D56"/>
<path d="M236.402 265.607H238.715C238.909 265.607 239.066 265.45 239.066 265.256V264.149C239.066 263.955 238.909 263.797 238.715 263.797H236.402C236.208 263.797 236.05 263.955 236.05 264.149V265.256C236.05 265.45 236.208 265.607 236.402 265.607Z" fill="#3F3D56"/>
<path d="M230.369 265.607H232.683C232.877 265.607 233.034 265.45 233.034 265.256V264.149C233.034 263.955 232.877 263.797 232.683 263.797H230.369C230.175 263.797 230.018 263.955 230.018 264.149V265.256C230.018 265.45 230.175 265.607 230.369 265.607Z" fill="#3F3D56"/>
<path d="M224.337 265.607H226.65C226.844 265.607 227.002 265.45 227.002 265.256V264.149C227.002 263.955 226.844 263.797 226.65 263.797H224.337C224.143 263.797 223.986 263.955 223.986 264.149V265.256C223.986 265.45 224.143 265.607 224.337 265.607Z" fill="#3F3D56"/>
<path d="M218.305 265.607H220.618C220.812 265.607 220.97 265.45 220.97 265.256V264.149C220.97 263.955 220.812 263.797 220.618 263.797H218.305C218.111 263.797 217.953 263.955 217.953 264.149V265.256C217.953 265.45 218.111 265.607 218.305 265.607Z" fill="#3F3D56"/>
<path d="M212.273 265.607H214.586C214.78 265.607 214.937 265.45 214.937 265.256V264.149C214.937 263.955 214.78 263.797 214.586 263.797H212.273C212.079 263.797 211.921 263.955 211.921 264.149V265.256C211.921 265.45 212.079 265.607 212.273 265.607Z" fill="#3F3D56"/>
<path d="M206.241 265.607H208.554C208.748 265.607 208.905 265.45 208.905 265.256V264.149C208.905 263.955 208.748 263.797 208.554 263.797H206.241C206.046 263.797 205.889 263.955 205.889 264.149V265.256C205.889 265.45 206.046 265.607 206.241 265.607Z" fill="#3F3D56"/>
<path d="M200.208 265.607H202.521C202.715 265.607 202.873 265.45 202.873 265.256V264.149C202.873 263.955 202.715 263.797 202.521 263.797H200.208C200.014 263.797 199.857 263.955 199.857 264.149V265.256C199.857 265.45 200.014 265.607 200.208 265.607Z" fill="#3F3D56"/>
<path d="M194.176 265.607H196.489C196.683 265.607 196.841 265.45 196.841 265.256V264.149C196.841 263.955 196.683 263.797 196.489 263.797H194.176C193.982 263.797 193.825 263.955 193.825 264.149V265.256C193.825 265.45 193.982 265.607 194.176 265.607Z" fill="#3F3D56"/>
<path d="M188.144 265.607H190.457C190.651 265.607 190.808 265.45 190.808 265.256V264.149C190.808 263.955 190.651 263.797 190.457 263.797H188.144C187.95 263.797 187.792 263.955 187.792 264.149V265.256C187.792 265.45 187.95 265.607 188.144 265.607Z" fill="#3F3D56"/>
<path d="M278.699 268.623H281.012C281.206 268.623 281.363 268.466 281.363 268.272V267.165C281.363 266.971 281.206 266.814 281.012 266.814H278.699C278.504 266.814 278.347 266.971 278.347 267.165V268.272C278.347 268.466 278.504 268.623 278.699 268.623Z" fill="#3F3D56"/>
<path d="M272.666 268.623H274.979C275.174 268.623 275.331 268.466 275.331 268.272V267.165C275.331 266.971 275.174 266.814 274.979 266.814H272.666C272.472 266.814 272.315 266.971 272.315 267.165V268.272C272.315 268.466 272.472 268.623 272.666 268.623Z" fill="#3F3D56"/>
<path d="M266.634 268.623H268.947C269.141 268.623 269.299 268.466 269.299 268.272V267.165C269.299 266.971 269.141 266.814 268.947 266.814H266.634C266.44 266.814 266.283 266.971 266.283 267.165V268.272C266.283 268.466 266.44 268.623 266.634 268.623Z" fill="#3F3D56"/>
<path d="M260.602 268.623H262.915C263.109 268.623 263.266 268.466 263.266 268.272V267.165C263.266 266.971 263.109 266.814 262.915 266.814H260.602C260.408 266.814 260.25 266.971 260.25 267.165V268.272C260.25 268.466 260.408 268.623 260.602 268.623Z" fill="#3F3D56"/>
<path d="M254.57 268.623H256.883C257.077 268.623 257.234 268.466 257.234 268.272V267.165C257.234 266.971 257.077 266.814 256.883 266.814H254.57C254.376 266.814 254.218 266.971 254.218 267.165V268.272C254.218 268.466 254.376 268.623 254.57 268.623Z" fill="#3F3D56"/>
<path d="M248.537 268.623H250.851C251.045 268.623 251.202 268.466 251.202 268.272V267.165C251.202 266.971 251.045 266.814 250.851 266.814H248.537C248.343 266.814 248.186 266.971 248.186 267.165V268.272C248.186 268.466 248.343 268.623 248.537 268.623Z" fill="#3F3D56"/>
<path d="M242.505 268.623H244.818C245.012 268.623 245.17 268.466 245.17 268.272V267.165C245.17 266.971 245.012 266.814 244.818 266.814H242.505C242.311 266.814 242.154 266.971 242.154 267.165V268.272C242.154 268.466 242.311 268.623 242.505 268.623Z" fill="#3F3D56"/>
<path d="M236.473 268.623H238.786C238.98 268.623 239.138 268.466 239.138 268.272V267.165C239.138 266.971 238.98 266.814 238.786 266.814H236.473C236.279 266.814 236.121 266.971 236.121 267.165V268.272C236.121 268.466 236.279 268.623 236.473 268.623Z" fill="#3F3D56"/>
<path d="M230.441 268.623H232.754C232.948 268.623 233.105 268.466 233.105 268.272V267.165C233.105 266.971 232.948 266.814 232.754 266.814H230.441C230.247 266.814 230.089 266.971 230.089 267.165V268.272C230.089 268.466 230.247 268.623 230.441 268.623Z" fill="#3F3D56"/>
<path d="M224.409 268.623H226.722C226.916 268.623 227.073 268.466 227.073 268.272V267.165C227.073 266.971 226.916 266.814 226.722 266.814H224.409C224.214 266.814 224.057 266.971 224.057 267.165V268.272C224.057 268.466 224.214 268.623 224.409 268.623Z" fill="#3F3D56"/>
<path d="M218.376 268.623H220.689C220.884 268.623 221.041 268.466 221.041 268.272V267.165C221.041 266.971 220.884 266.814 220.689 266.814H218.376C218.182 266.814 218.025 266.971 218.025 267.165V268.272C218.025 268.466 218.182 268.623 218.376 268.623Z" fill="#3F3D56"/>
<path d="M212.344 268.623H214.657C214.851 268.623 215.009 268.466 215.009 268.272V267.165C215.009 266.971 214.851 266.814 214.657 266.814H212.344C212.15 266.814 211.993 266.971 211.993 267.165V268.272C211.993 268.466 212.15 268.623 212.344 268.623Z" fill="#3F3D56"/>
<path d="M206.312 268.623H208.625C208.819 268.623 208.976 268.466 208.976 268.272V267.165C208.976 266.971 208.819 266.814 208.625 266.814H206.312C206.118 266.814 205.96 266.971 205.96 267.165V268.272C205.96 268.466 206.118 268.623 206.312 268.623Z" fill="#3F3D56"/>
<path d="M200.28 268.623H202.593C202.787 268.623 202.944 268.466 202.944 268.272V267.165C202.944 266.971 202.787 266.814 202.593 266.814H200.28C200.085 266.814 199.928 266.971 199.928 267.165V268.272C199.928 268.466 200.085 268.623 200.28 268.623Z" fill="#3F3D56"/>
<path d="M194.247 268.623H196.56C196.755 268.623 196.912 268.466 196.912 268.272V267.165C196.912 266.971 196.755 266.814 196.56 266.814H194.247C194.053 266.814 193.896 266.971 193.896 267.165V268.272C193.896 268.466 194.053 268.623 194.247 268.623Z" fill="#3F3D56"/>
<path d="M188.215 268.623H190.528C190.722 268.623 190.88 268.466 190.88 268.272V267.165C190.88 266.971 190.722 266.814 190.528 266.814H188.215C188.021 266.814 187.864 266.971 187.864 267.165V268.272C187.864 268.466 188.021 268.623 188.215 268.623Z" fill="#3F3D56"/>
<path d="M228.631 272.243H252.057C252.251 272.243 252.408 272.085 252.408 271.891V270.784C252.408 270.59 252.251 270.433 252.057 270.433H228.631C228.437 270.433 228.28 270.59 228.28 270.784V271.891C228.28 272.085 228.437 272.243 228.631 272.243Z" fill="#3F3D56"/>
</g>
<defs>
<clipPath id="clip0_6_123">
<rect width="600" height="455.9" fill="white"/>
</clipPath>
</defs>
</svg>
