<svg width="25" height="25" viewBox="0 0 25 25" fill="none" xmlns="http://www.w3.org/2000/svg">
<g clip-path="url(#clip0_72_356)">
<path d="M23.981 22.0579V9.55788C23.981 9.35788 23.862 9.17688 23.678 9.09788L16.678 6.09788C16.523 6.03088 16.346 6.04688 16.206 6.13988C16.065 6.23288 15.981 6.38988 15.981 6.55788V22.0579H14.981V0.807881C14.981 0.560881 14.86 0.329881 14.657 0.189881C14.453 0.0498805 14.195 0.0188805 13.964 0.106881L3.46396 4.10688C3.17296 4.21788 2.98096 4.49688 2.98096 4.80788V22.0579H1.98096C1.42896 22.0579 0.980957 22.5049 0.980957 23.0579C0.980957 23.6109 1.42896 24.0579 1.98096 24.0579H23.981C24.533 24.0579 24.981 23.6109 24.981 23.0579C24.981 22.5049 24.533 22.0579 23.981 22.0579ZM20.981 12.8079C20.981 12.3939 21.317 12.0579 21.731 12.0579C22.145 12.0579 22.481 12.3939 22.481 12.8079V14.3079C22.481 14.7219 22.145 15.0579 21.731 15.0579C21.317 15.0579 20.981 14.7219 20.981 14.3079V12.8079ZM20.981 18.8079C20.981 18.3939 21.317 18.0579 21.731 18.0579C22.145 18.0579 22.481 18.3939 22.481 18.8079V20.3079C22.481 20.7219 22.145 21.0579 21.731 21.0579C21.317 21.0579 20.981 20.7219 20.981 20.3079V18.8079ZM17.481 12.8079C17.481 12.3939 17.817 12.0579 18.231 12.0579C18.645 12.0579 18.981 12.3939 18.981 12.8079V14.3079C18.981 14.7219 18.645 15.0579 18.231 15.0579C17.817 15.0579 17.481 14.7219 17.481 14.3079V12.8079ZM17.481 18.8079C17.481 18.3939 17.817 18.0579 18.231 18.0579C18.645 18.0579 18.981 18.3939 18.981 18.8079V20.3079C18.981 20.7219 18.645 21.0579 18.231 21.0579C17.817 21.0579 17.481 20.7219 17.481 20.3079V18.8079ZM10.481 6.80788C10.481 6.39388 10.817 6.05788 11.231 6.05788C11.645 6.05788 11.981 6.39388 11.981 6.80788V8.30788C11.981 8.72188 11.645 9.05788 11.231 9.05788C10.817 9.05788 10.481 8.72188 10.481 8.30788V6.80788ZM10.481 12.8079C10.481 12.3939 10.817 12.0579 11.231 12.0579C11.645 12.0579 11.981 12.3939 11.981 12.8079V14.3079C11.981 14.7219 11.645 15.0579 11.231 15.0579C10.817 15.0579 10.481 14.7219 10.481 14.3079V12.8079ZM10.481 18.8079C10.481 18.3939 10.817 18.0579 11.231 18.0579C11.645 18.0579 11.981 18.3939 11.981 18.8079V20.3079C11.981 20.7219 11.645 21.0579 11.231 21.0579C10.817 21.0579 10.481 20.7219 10.481 20.3079V18.8079ZM5.98096 6.80788C5.98096 6.39388 6.31696 6.05788 6.73096 6.05788C7.14496 6.05788 7.48096 6.39388 7.48096 6.80788V8.30788C7.48096 8.72188 7.14496 9.05788 6.73096 9.05788C6.31696 9.05788 5.98096 8.72188 5.98096 8.30788V6.80788ZM5.98096 12.8079C5.98096 12.3939 6.31696 12.0579 6.73096 12.0579C7.14496 12.0579 7.48096 12.3939 7.48096 12.8079V14.3079C7.48096 14.7219 7.14496 15.0579 6.73096 15.0579C6.31696 15.0579 5.98096 14.7219 5.98096 14.3079V12.8079ZM5.98096 18.8079C5.98096 18.3939 6.31696 18.0579 6.73096 18.0579C7.14496 18.0579 7.48096 18.3939 7.48096 18.8079V20.3079C7.48096 20.7219 7.14496 21.0579 6.73096 21.0579C6.31696 21.0579 5.98096 20.7219 5.98096 20.3079V18.8079Z" fill="#29D697"/>
</g>
<defs>
<clipPath id="clip0_72_356">
<rect width="24" height="24" fill="white" transform="translate(0.980957 0.0571289)"/>
</clipPath>
</defs>
</svg>
