<svg width="25" height="16" viewBox="0 0 25 16" fill="none" xmlns="http://www.w3.org/2000/svg">
<path d="M23.558 4.32197C23.4773 4.32197 23.3946 4.33347 23.3118 4.35627L22.3766 4.61389L21.4055 2.24825C21.1304 1.5781 20.3172 1.03289 19.5928 1.03289H10.5043C9.77993 1.03289 8.96671 1.5781 8.69154 2.24825L7.96612 4.01581C7.97679 3.8985 7.98277 3.78017 7.98277 3.66083C7.98277 2.28981 7.24264 1.01487 6.05109 0.333313C5.98775 0.297089 5.91438 0.277965 5.8388 0.277965C5.59856 0.277965 5.41735 0.465432 5.41735 0.712753C5.41735 0.712753 5.4099 2.63054 5.41008 3.26971C5.40999 3.33674 5.32991 3.41654 5.29654 3.44063L5.27254 3.45865C4.88915 3.77759 4.40572 4.1369 4.19205 4.24805C4.17863 4.24796 4.16557 4.24759 4.15178 4.24759C4.13707 4.24759 4.12319 4.24796 4.10885 4.24805C3.89214 4.13671 3.4009 3.77116 3.01181 3.44615L2.98745 3.42776C2.98644 3.42712 2.89321 3.35237 2.89321 3.20839C2.89321 2.54311 2.8865 0.714224 2.8865 0.714224C2.88622 0.426082 2.67981 0.275299 2.47607 0.275299C2.39728 0.275299 2.31591 0.296997 2.24641 0.336715C1.05862 1.01919 0.320801 2.29284 0.320801 3.66074C0.320801 5.2651 1.31256 6.64145 2.71494 7.21112L2.71475 13.7342C2.71475 14.5047 3.34151 15.1314 4.11197 15.1314H4.1915C4.96196 15.1314 5.58872 14.5047 5.58872 13.7342L5.58891 7.2136C6.05918 7.02337 6.49112 6.73928 6.86072 6.36968C6.95046 6.27994 7.03504 6.18662 7.11457 6.0899L6.72345 7.04259C6.46786 7.66512 6.2598 8.71922 6.2598 9.39241V14.092C6.2598 14.635 6.70166 15.0768 7.24467 15.0768H8.53092C9.07392 15.0768 9.51578 14.635 9.51578 14.092V12.9183H20.5815V14.092C20.5815 14.635 21.0233 15.0768 21.5664 15.0768H22.8524C23.3954 15.0768 23.8373 14.635 23.8373 14.092V9.39241C23.8373 8.71931 23.6293 7.66521 23.3737 7.04259L23.217 6.66076H23.3358C23.8788 6.66076 24.3207 6.21899 24.3207 5.67589V5.12462C24.3208 4.65958 24 4.32197 23.558 4.32197ZM8.42813 6.12613L9.89715 2.54789C10.0616 2.14703 10.5509 1.81907 10.9842 1.81907H19.1134C19.5467 1.81907 20.0359 2.14703 20.2004 2.54789L21.6694 6.12613C21.8339 6.52699 21.614 6.85494 21.1808 6.85494H8.91679C8.48347 6.85494 8.26364 6.52699 8.42813 6.12613ZM11.7074 10.652C11.7074 10.8686 11.5301 11.046 11.3135 11.046H8.52282C8.30621 11.046 8.12895 10.8687 8.12895 10.652V9.31279C8.12895 9.09618 8.30621 8.91882 8.52282 8.91882H11.3135C11.5301 8.91882 11.7074 9.09608 11.7074 9.31279V10.652ZM21.942 10.652C21.942 10.8686 21.7648 11.046 21.5481 11.046H18.7576C18.541 11.046 18.3637 10.8687 18.3637 10.652V9.31279C18.3637 9.09618 18.541 8.91882 18.7576 8.91882H21.5481C21.7648 8.91882 21.942 9.09608 21.942 9.31279V10.652Z" fill="#FF6D6C"/>
</svg>
