<svg width="12" height="12" viewBox="0 0 12 12" fill="none" xmlns="http://www.w3.org/2000/svg">
<path d="M12 3.3059C12 2.6507 11.467 2.11767 10.8118 2.11767H8.47059V1.7412C8.47059 1.17033 8.00616 0.705902 7.43529 0.705902H4.56471C3.99384 0.705902 3.52941 1.17033 3.52941 1.7412V2.11767H1.18824C0.533035 2.11767 0 2.6507 0 3.3059V6.00002H0.705882V10.1059C0.705882 10.7611 1.23892 11.2941 1.89412 11.2941H10.1059C10.7611 11.2941 11.2941 10.7611 11.2941 10.1059V6.00002H12V3.3059ZM4.23529 1.7412C4.23529 1.55955 4.38306 1.41178 4.56471 1.41178H7.43529C7.61694 1.41178 7.76471 1.55955 7.76471 1.7412V2.11767H4.23529V1.7412ZM3.17647 10.5883V8.82355H7.05882V9.88237H7.76471V8.82355H8.82353V10.5883H3.17647ZM10.5882 10.1059C10.5882 10.3719 10.3719 10.5883 10.1059 10.5883H9.52941V8.11767H2.47059V10.5883H1.89412C1.62814 10.5883 1.41176 10.3719 1.41176 10.1059V6.00002H2.47059V6.35296C2.47059 6.9368 2.94558 7.41178 3.52941 7.41178C4.11325 7.41178 4.58824 6.9368 4.58824 6.35296V6.00002H7.41176V6.35296C7.41176 6.9368 7.88673 7.41178 8.47059 7.41178C9.05445 7.41178 9.52941 6.9368 9.52941 6.35296V6.00002H10.5882V10.1059ZM3.17647 6.35296V5.29414H3.88235V6.35296C3.88235 6.54757 3.72402 6.7059 3.52941 6.7059C3.3348 6.7059 3.17647 6.54757 3.17647 6.35296ZM8.11765 6.35296V5.29414H8.82353V6.35296C8.82353 6.54757 8.66522 6.7059 8.47059 6.7059C8.27595 6.7059 8.11765 6.54757 8.11765 6.35296ZM11.2941 5.29414H9.52941V4.58826H7.41176V5.29414H4.58824V4.58826H2.47059V5.29414H0.705882V3.3059C0.705882 3.03993 0.922259 2.82355 1.18824 2.82355H10.8118C11.0777 2.82355 11.2941 3.03993 11.2941 3.3059V5.29414Z" fill="#A4A4AA"/>
</svg>
