<svg width="537" height="103" viewBox="0 0 537 103" fill="none" xmlns="http://www.w3.org/2000/svg">
<path d="M2 37.1609L10.0758 46.6661C18.1515 56.1712 34.303 75.1816 50.4545 70.3789C66.6061 65.5763 82.7576 36.9607 98.9091 19.416C115.061 1.87126 131.212 -4.60253 147.364 10.2788C163.515 25.1601 179.667 61.3965 195.818 81.3762C211.97 101.356 228.121 105.079 244.273 97.0497C260.424 89.0205 276.576 69.2391 292.727 67.2148C308.879 65.1904 325.03 80.9232 341.182 79.5476C357.333 78.172 373.485 59.6881 389.636 46.6948C405.788 33.7015 421.939 26.1988 438.091 18.4913C454.242 10.7838 470.394 2.87131 486.545 11.7064C502.697 20.5415 518.849 46.1241 526.924 58.9154L535 71.7066" stroke="#E2B4D8" stroke-width="4"/>
</svg>
