<svg width="25" height="25" viewBox="0 0 25 25" fill="none" xmlns="http://www.w3.org/2000/svg">
<g clip-path="url(#clip0_72_324)">
<path d="M20.0722 17.454C19.5377 16.8646 18.8935 16.5768 18.0711 16.5768H16.3383L15.2006 15.4803C14.3645 16.1657 13.3503 16.5632 12.2537 16.5632C11.2257 16.5632 10.2526 16.2068 9.45759 15.59L8.44326 16.5632H6.63983C5.7215 16.5632 5.00877 16.8784 4.4468 17.5226C2.81573 19.4141 3.08986 23.4575 3.21322 24.7048H21.4702C21.5662 23.4437 21.7307 19.3044 20.0722 17.454Z" fill="#6B7AED"/>
<path d="M7.50285 8.8736C7.17389 9.14772 6.95459 9.58633 6.95459 10.0935C6.95459 10.8473 7.44802 11.4641 8.07852 11.5738C8.21558 12.7114 8.6816 13.712 9.38063 14.4521C9.53136 14.6029 9.68213 14.7537 9.84661 14.877C10.0522 15.0415 10.2715 15.1786 10.5045 15.3019C11.0254 15.576 11.601 15.7268 12.2178 15.7268C12.8346 15.7268 13.4103 15.576 13.9311 15.3019C14.1641 15.1786 14.3834 15.0415 14.589 14.877C14.7536 14.7537 14.9043 14.6029 15.0551 14.4521C15.7404 13.712 16.2201 12.7251 16.3435 11.5875C16.3572 11.5875 16.3709 11.5875 16.3846 11.5875C17.1111 11.5875 17.6867 10.9159 17.6867 10.0935C17.6867 9.58633 17.4674 9.14772 17.1384 8.8736H7.50285Z" fill="#6B7AED"/>
<path d="M17.2256 5.99416C16.8007 4.5824 15.6768 3.14323 14.2513 2.40308V5.62409V6.0627C14.2513 6.09011 14.2513 6.10382 14.2513 6.11752C14.2376 6.26829 14.2102 6.40536 14.1417 6.54242C13.9635 6.88508 13.6071 7.1318 13.196 7.1318H12.9767H11.469C11.0852 7.1318 10.7425 6.9262 10.5643 6.62466C10.4821 6.5013 10.441 6.36428 10.4136 6.21347C10.3999 6.15864 10.3999 6.11752 10.3999 6.0627V5.67892V2.38937C8.97438 3.14323 7.85045 4.5824 7.42555 5.99416L7.32961 6.29571H6.54834V8.00901H7.41185H8.61801H9.12515H15.7317H16.2251H18.093V7.92677V6.29571H17.3217L17.2256 5.99416Z" fill="#6B7AED"/>
<path d="M11.464 6.70819H13.1773C13.4241 6.70819 13.6297 6.57112 13.7393 6.36553C13.7941 6.26958 13.8216 6.17364 13.8216 6.06399V5.94063V5.43349V2.19877V1.73275V1.55457C13.8216 1.44492 13.7941 1.34897 13.7667 1.25303C13.6434 0.937782 13.3282 0.704773 12.9718 0.704773H11.464C11.1351 0.704773 10.8609 0.951489 10.8335 1.26674C10.8335 1.29415 10.8198 1.32156 10.8198 1.34898V1.73275V2.19877V5.48832V6.00916V6.06399C10.8198 6.20105 10.8609 6.32441 10.9295 6.43406C11.0529 6.59854 11.2447 6.70819 11.464 6.70819Z" fill="#6B7AED"/>
</g>
<defs>
<clipPath id="clip0_72_324">
<rect width="24" height="24" fill="white" transform="translate(0.320801 0.704773)"/>
</clipPath>
</defs>
</svg>
