<svg width="25" height="25" viewBox="0 0 25 25" fill="none" xmlns="http://www.w3.org/2000/svg">
<g clip-path="url(#clip0_72_334)">
<path d="M20.0544 17.845H14.3547V10.3134H16.7705C16.7431 8.25854 16.3576 6.16737 15.7031 4.54166C15.0995 3.04237 14.3134 2.11102 13.6516 2.11102C12.9898 2.11102 12.2037 3.04237 11.6001 4.54166C10.9456 6.16732 10.5602 8.25854 10.5328 10.3134H12.9485V17.845H8.42922L6.36514 15.7809C4.88564 14.3014 2.47839 14.3014 0.998936 15.7809C0.867078 15.9128 0.792969 16.0916 0.792969 16.2781C0.792969 16.4646 0.867078 16.6434 0.998936 16.7752L6.07921 21.8555C6.06857 21.8821 6.05891 21.9094 6.05137 21.9378L5.5536 23.8219C5.45442 24.1973 5.67838 24.5821 6.0538 24.6813C6.11399 24.6971 6.17441 24.7047 6.23385 24.7047C6.54524 24.7047 6.82991 24.4963 6.9132 24.181L7.39892 22.3425H20.9808V24.0015C20.9808 24.3898 21.2957 24.7046 21.684 24.7046C22.0723 24.7046 22.3871 24.3898 22.3871 24.0015V22.3425H23.1457C23.534 22.3425 23.8488 22.0277 23.8488 21.6394C23.8489 19.5472 22.1467 17.845 20.0544 17.845Z" fill="#FFCD55"/>
<path d="M17.0074 4.01647C17.7262 5.80197 18.1488 8.08443 18.1766 10.3134H21.8538C22.2421 10.3134 22.5569 9.99861 22.5569 9.6103C22.5569 4.6998 18.5619 0.704773 13.6514 0.704773C14.9557 0.704773 16.1476 1.8809 17.0074 4.01647Z" fill="#FFCD55"/>
<path d="M10.2956 4.01647C11.1555 1.8809 12.3473 0.704773 13.6517 0.704773C8.74108 0.704773 4.74609 4.6998 4.74609 9.6103C4.74609 9.99861 5.0609 10.3134 5.44921 10.3134H9.12639C9.15423 8.08448 9.57681 5.80201 10.2956 4.01647Z" fill="#FFCD55"/>
</g>
<defs>
<clipPath id="clip0_72_334">
<rect width="24" height="24" fill="white" transform="translate(0.320801 0.704773)"/>
</clipPath>
</defs>
</svg>
