<svg width="25" height="23" viewBox="0 0 25 23" fill="none" xmlns="http://www.w3.org/2000/svg">
<path d="M20.8061 3.95628C18.5396 1.68981 15.5261 0.441589 12.3208 0.441589C9.11549 0.441589 6.10202 1.68981 3.83555 3.95628C1.56902 6.22281 0.320801 9.23623 0.320801 12.4416C0.320801 14.5822 0.891706 16.6839 1.97176 18.5194C3.01955 20.2999 4.51768 21.7892 6.30427 22.8264C6.46871 22.9218 6.64837 22.9672 6.82576 22.9672C7.18452 22.9672 7.53364 22.7815 7.72672 22.4488C8.01523 21.9518 7.84624 21.315 7.34916 21.0264C4.29766 19.2551 2.40202 15.9656 2.40202 12.4415C2.40202 6.97234 6.85156 2.5228 12.3207 2.5228C17.79 2.5228 22.2395 6.97234 22.2395 12.4415C22.2395 14.7534 21.6135 16.682 20.429 18.0187C19.465 19.1067 18.1707 19.7307 16.8782 19.7307C15.5829 19.7307 14.1153 19.0493 13.5757 17.2443C15.6633 16.8133 17.2377 14.9605 17.2377 12.7471V9.71466C17.2377 9.57105 17.1212 9.45454 16.9776 9.45454H15.5857V6.6155C15.5857 6.04081 15.1198 5.57492 14.5452 5.57492C13.9704 5.57492 13.5045 6.04081 13.5045 6.6155V9.45454H11.1373V6.6155C11.1373 6.04081 10.6714 5.57492 10.0967 5.57492C9.52191 5.57492 9.05607 6.04081 9.05607 6.6155V9.45454H7.66414C7.52048 9.45454 7.40402 9.57105 7.40402 9.71466V12.7471C7.40402 15.0933 9.17289 17.034 11.447 17.3062C11.6914 18.454 12.2013 19.4408 12.9566 20.211C13.9689 21.2433 15.3618 21.8118 16.8784 21.8118C18.7661 21.8118 20.628 20.9323 21.9868 19.3988C23.0516 18.1972 24.3209 16.0146 24.3209 12.4414C24.3207 9.23623 23.0726 6.22276 20.8061 3.95628Z" fill="#39D1F2"/>
</svg>
