<svg width="430" height="157" viewBox="0 0 430 157" fill="none" xmlns="http://www.w3.org/2000/svg">
<path opacity="0.4" d="M1.5605 132.595L12.5571 139.574C23.5538 146.552 45.547 160.51 60.0441 151.727C74.5411 142.945 81.5418 111.422 92.0277 90.4709C102.514 69.5202 116.485 59.1416 137.178 69.1561C157.871 79.1705 185.287 109.578 207.586 124.461C229.884 139.344 247.065 138.703 260.546 126.839C274.028 114.975 283.81 91.8887 299.181 85.7592C314.553 79.6296 335.514 90.4572 351.09 84.9471C366.666 79.4371 376.856 57.5894 388.775 40.985C400.693 24.3807 414.34 13.0196 421.164 7.33906L427.988 1.65853" stroke="#E2B4D8" stroke-width="4"/>
</svg>
