<svg width="24" height="24" viewBox="0 0 24 24" fill="none" xmlns="http://www.w3.org/2000/svg">
<rect width="24" height="24" rx="4" fill="#00A9CE"/>
<g clip-path="url(#clip0_169_1119)">
<path d="M14.8984 17.3594C14.8984 16.4533 14.1639 15.7188 13.2578 15.7188C12.3517 15.7188 11.6172 16.4533 11.6172 17.3594C11.6172 18.2655 12.3517 19 13.2578 19C14.1639 19 14.8984 18.2655 14.8984 17.3594ZM12.8469 17.3594C12.8469 17.1328 13.0305 16.9492 13.2571 16.9492C13.4836 16.9492 13.6672 17.1328 13.6672 17.3594C13.6672 17.5859 13.4836 17.7695 13.2571 17.7695C13.0305 17.7695 12.8469 17.5859 12.8469 17.3594Z" fill="white"/>
<path d="M13.2578 8.28125H14.8984V7.46094C14.8984 7.05655 14.6004 6.7359 14.2153 6.66829C13.7585 5.68648 12.7694 5 11.6172 5H9.97656C8.39362 5 7.07812 6.28815 7.07812 7.87109V12.5632C6.83737 12.7061 6.66797 12.9575 6.66797 13.2578V16.5391H8.30859V13.2578C8.30859 12.9575 8.13919 12.7061 7.89844 12.5632V7.87109C7.89844 6.74039 8.84586 5.82031 9.97656 5.82031H11.6172C12.4191 5.82031 13.1078 6.28751 13.4447 6.95999C13.3341 7.09981 13.2578 7.26878 13.2578 7.46094V8.28125Z" fill="white"/>
<path d="M5.41016 19H9.56641C9.79295 19 9.97656 18.8164 9.97656 18.5898V18.1797C9.97656 17.7266 9.60934 17.3594 9.15625 17.3594H5.82031C5.36722 17.3594 5 17.7266 5 18.1797V18.5898C5 18.8164 5.18361 19 5.41016 19Z" fill="white"/>
<path d="M15.7188 9.1432V13.6683C15.7188 13.8946 15.9026 14.0784 16.1289 14.0784H19V12.848C19 10.9497 17.5618 9.34967 15.7188 9.1432Z" fill="white"/>
<path d="M14.8984 13.668V9.10156H13.2578C12.8047 9.10156 12.4375 9.46878 12.4375 9.92188V15.0496C12.6953 14.9576 12.9688 14.8984 13.2578 14.8984C14.6149 14.8984 15.7188 16.0023 15.7188 17.3594C15.7188 17.9919 15.4722 18.5636 15.0787 19H17.7695C18.4491 19 19 18.4491 19 17.7695V14.8984H16.1289C15.4504 14.8984 14.8984 14.3464 14.8984 13.668Z" fill="white"/>
</g>
<defs>
<clipPath id="clip0_169_1119">
<rect width="14" height="14" fill="white" transform="translate(5 5)"/>
</clipPath>
</defs>
</svg>
