<svg width="25" height="25" viewBox="0 0 25 25" fill="none" xmlns="http://www.w3.org/2000/svg">
<g clip-path="url(#clip0_72_312)">
<path d="M17.2896 21.8923C17.2896 20.339 16.0303 19.0798 14.4771 19.0798C12.9238 19.0798 11.6646 20.339 11.6646 21.8923C11.6646 23.4456 12.9238 24.7048 14.4771 24.7048C16.0303 24.7048 17.2896 23.4456 17.2896 21.8923ZM13.7726 21.8923C13.7726 21.5039 14.0874 21.1891 14.4758 21.1891C14.8641 21.1891 15.1789 21.5039 15.1789 21.8923C15.1789 22.2806 14.8641 22.5954 14.4758 22.5954C14.0874 22.5954 13.7726 22.2806 13.7726 21.8923Z" fill="#00A9CE"/>
<path d="M14.4771 6.32977H17.2896V4.92352C17.2896 4.23029 16.7787 3.6806 16.1184 3.5647C15.3354 1.88159 13.6397 0.704773 11.6646 0.704773H8.85205C6.13843 0.704773 3.8833 2.91302 3.8833 5.62665V13.6703C3.47058 13.9153 3.18018 14.3461 3.18018 14.861V20.486H5.99268V14.861C5.99268 14.3461 5.70227 13.9153 5.28955 13.6703V5.62665C5.28955 3.68829 6.9137 2.11102 8.85205 2.11102H11.6646C13.0393 2.11102 14.22 2.91193 14.7975 4.06476C14.6078 4.30444 14.4771 4.59412 14.4771 4.92352V6.32977Z" fill="#00A9CE"/>
<path d="M1.02393 24.7048H8.14893C8.53729 24.7048 8.85205 24.39 8.85205 24.0016V23.2985C8.85205 22.5218 8.22253 21.8923 7.4458 21.8923H1.72705C0.950317 21.8923 0.320801 22.5218 0.320801 23.2985V24.0016C0.320801 24.39 0.635559 24.7048 1.02393 24.7048Z" fill="#00A9CE"/>
<path d="M18.6958 7.80695V15.5642C18.6958 15.9522 19.0109 16.2673 19.3989 16.2673H24.3208V14.158C24.3208 10.9038 21.8553 8.16089 18.6958 7.80695Z" fill="#00A9CE"/>
<path d="M17.2896 15.5641V7.73602H14.4771C13.7003 7.73602 13.0708 8.36554 13.0708 9.14227V17.9326C13.5128 17.775 13.9816 17.6735 14.4771 17.6735C16.8034 17.6735 18.6958 19.5659 18.6958 21.8923C18.6958 22.9766 18.2732 23.9566 17.5986 24.7048H22.2114C23.3763 24.7048 24.3208 23.7603 24.3208 22.5954V17.6735H19.3989C18.2358 17.6735 17.2896 16.7272 17.2896 15.5641Z" fill="#00A9CE"/>
</g>
<defs>
<clipPath id="clip0_72_312">
<rect width="24" height="24" fill="white" transform="translate(0.320801 0.704773)"/>
</clipPath>
</defs>
</svg>
