<svg width="399" height="212" viewBox="0 0 399 212" fill="none" xmlns="http://www.w3.org/2000/svg">
<path opacity="0.4" d="M1.75819 0.410009L4.88485 12.1387C8.01151 23.8674 14.2648 47.3248 28.0954 48.1672C41.9259 49.0097 63.3337 27.2373 81.2188 15.9788C99.1039 4.72028 113.466 3.97569 121.033 23.5118C128.601 43.0479 129.373 82.8647 135.317 107.243C141.262 131.621 152.38 140.56 167.237 138.338C182.094 136.116 200.691 122.734 213.638 126.215C226.584 129.696 233.88 150.04 246.621 154.137C259.361 158.235 277.545 146.084 293.981 139.148C310.418 132.212 325.108 130.49 339.863 128.574C354.618 126.658 369.438 124.547 378.929 138.341C388.42 152.135 392.582 181.834 394.663 196.683L396.744 211.533" stroke="#E2B4D8" stroke-width="3"/>
</svg>
